<?xml version="1.0" standalone="no"?>
<!DOCTYPE svg PUBLIC "-//W3C//DTD SVG 1.1//EN" "http://www.w3.org/Graphics/SVG/1.1/DTD/svg11.dtd" >
<svg xmlns="http://www.w3.org/2000/svg">
<metadata></metadata>
<defs>
<font id="function_prolight_condensed" horiz-adv-x="749" >
<font-face units-per-em="2048" ascent="1542" descent="-506" />
<missing-glyph horiz-adv-x="382" />
<glyph unicode="&#xfb01;" horiz-adv-x="716" d="M33 819v109h104v344q0 69 10.5 108.5t36.5 71.5q46 55 127 55q55 0 105 -20v-127q-52 39 -84 39q-41 0 -62 -31q-10 -13 -13 -31t-3 -65v-344h162v-109h-162v-819h-117v819h-104zM469 1204q0 37 25.5 62.5t62.5 25.5q36 0 62 -26t26 -62q0 -35 -26.5 -61.5t-61.5 -26.5 q-36 0 -62 26t-26 62zM498 0v928h116v-928h-116z" />
<glyph unicode="&#xfb02;" horiz-adv-x="716" d="M33 819v109h104v344q0 68 10.5 108t36.5 72q46 55 127 55q55 0 105 -20v-127q-52 39 -84 39q-41 0 -62 -31q-10 -13 -13 -31t-3 -65v-344h162v-109h-162v-819h-117v819h-104zM498 0v1493h116v-1493h-116z" />
<glyph horiz-adv-x="2048" />
<glyph horiz-adv-x="2048" />
<glyph unicode="&#xd;" horiz-adv-x="2048" />
<glyph unicode=" "  horiz-adv-x="382" />
<glyph unicode="&#x09;" horiz-adv-x="382" />
<glyph unicode="&#xa0;" horiz-adv-x="382" />
<glyph unicode="!" horiz-adv-x="485" d="M150 78q0 38 27 65t65 27t65 -27t27 -65t-27 -65t-67 -27q-37 0 -63.5 27.5t-26.5 64.5zM180 342v1024h123v-1024h-123z" />
<glyph unicode="&#x22;" horiz-adv-x="641" d="M109 1366h151l-27 -543h-98zM381 1366h151l-26 -543h-96z" />
<glyph unicode="#" horiz-adv-x="751" d="M8 451v114h172l35 262h-156v115h170l58 424h108l-57 -424h141l58 424h110l-57 -424h151v-115h-166l-34 -262h153v-114h-170l-57 -451h-111l60 451h-142l-59 -451h-109l60 451h-158zM289 565h143l33 262h-141z" />
<glyph unicode="$" d="M63 1010q0 266 250 329v158h101v-156q48 -2 110.5 -24.5t104.5 -54.5l-64 -97q-101 64 -180 64q-91 0 -147 -58.5t-56 -152.5q0 -104 64 -178q26 -28 64 -54.5t116 -72.5q84 -47 126.5 -80.5t70.5 -75.5q63 -88 63 -217q0 -135 -75.5 -233.5t-196.5 -118.5v-174h-101v170 q-79 14 -128 38.5t-101 77.5l74 88q61 -49 106 -69.5t92 -20.5q91 0 151 67.5t60 168.5q0 88 -47 151q-19 28 -59.5 58t-116.5 75q-88 51 -128.5 82t-72.5 72q-80 103 -80 238z" />
<glyph unicode="%" horiz-adv-x="1030" d="M82 1012q0 175 46 269.5t132 94.5q79 0 116.5 -81t37.5 -253q0 -368 -166 -368q-81 0 -123.5 86.5t-42.5 251.5zM158 1014q0 -129 25 -200t69 -71q86 0 86 310q0 254 -82 254q-44 0 -71 -79.5t-27 -213.5zM182 0l592 1366h74l-592 -1366h-74zM616 328q0 175 46.5 269.5 t132.5 94.5q79 0 116 -81t37 -253q0 -368 -166 -368q-81 0 -123.5 86.5t-42.5 251.5zM692 330q0 -129 25 -200t69 -71q86 0 86 310q0 254 -81 254q-45 0 -72 -79.5t-27 -213.5z" />
<glyph unicode="&#x26;" horiz-adv-x="909" d="M109 352q0 112 47.5 204t154.5 189q-69 123 -98 202t-29 143q0 113 78.5 190.5t192.5 77.5q106 0 175.5 -72.5t69.5 -181.5q0 -92 -53 -176t-186 -203l235 -446q34 37 95 114l83 -86q-54 -73 -120 -141l84 -166h-136l-38 76q-103 -94 -228 -94q-137 0 -232 107.5 t-95 262.5zM225 350q0 -100 60.5 -172t146.5 -72q85 0 172 78l-237 451q-142 -151 -142 -285zM301 1094q0 -51 17 -99t69 -143q1 -2 14 -29q6 4 13 11q74 56 120 132t46 142q0 60 -37.5 99.5t-93.5 39.5q-63 0 -105.5 -44t-42.5 -109z" />
<glyph unicode="'" horiz-adv-x="368" d="M109 1366h151l-27 -543h-98z" />
<glyph unicode="(" horiz-adv-x="532" d="M109 569q0 233 65.5 487.5t175.5 454.5l101 -49q-117 -236 -171.5 -452t-54.5 -441q0 -224 54.5 -439.5t171.5 -451.5l-101 -49q-110 200 -175.5 454.5t-65.5 485.5z" />
<glyph unicode=")" horiz-adv-x="532" d="M82 -322q120 244 173.5 455t53.5 436q0 226 -53.5 437.5t-173.5 455.5l100 49q112 -201 177 -454t65 -488q0 -234 -65 -487.5t-177 -452.5z" />
<glyph unicode="*" horiz-adv-x="751" d="M84 1255l20 68l234 -74v244h72v-244l233 74l23 -68l-234 -75l143 -199l-59 -43l-141 199l-144 -199l-59 43l143 199z" />
<glyph unicode="+" horiz-adv-x="751" d="M68 641v113h249v247h117v-247h248v-113h-248v-250h-117v250h-249z" />
<glyph unicode="," horiz-adv-x="362" d="M12 -250l142 420l127 -57l-181 -404z" />
<glyph unicode="-" horiz-adv-x="282" d="M0 414v143h283v-143h-283z" />
<glyph unicode="." horiz-adv-x="362" d="M88 80q0 37 27.5 63.5t64.5 26.5q38 0 65 -27t27 -65t-27 -65t-65 -27t-65 27t-27 67z" />
<glyph unicode="/" horiz-adv-x="835" d="M-27 -354l801 1847h117l-799 -1847h-119z" />
<glyph unicode="0" d="M68 653q0 354 84.5 542.5t244.5 188.5q148 0 216.5 -160t68.5 -507q0 -735 -309 -735q-149 0 -227 171.5t-78 499.5zM190 662q0 -275 60 -449q42 -115 131 -115q67 0 108 80q29 57 49.5 221.5t20.5 341.5q0 269 -41 398t-127 129q-35 0 -66.5 -23t-50.5 -61 q-38 -76 -61 -219.5t-23 -302.5z" />
<glyph unicode="1" d="M156 1247l26 119h277v-1366h-127v1247h-176z" />
<glyph unicode="2" horiz-adv-x="747" d="M76 0l280 580q98 200 132 302t34 195q0 91 -38 141t-107 50q-158 0 -158 -244q0 -17 2 -31h-125q3 131 21 195q25 92 93 144t163 52q127 0 202.5 -82.5t75.5 -222.5q0 -115 -35 -220t-145 -324l-209 -414h373v-121h-559z" />
<glyph unicode="3" d="M84 322l2 53h125q2 -150 37 -210.5t121 -60.5q83 0 121 69.5t38 219.5q0 299 -227 299h-61v113h53q62 0 94.5 9t58.5 34q66 60 66 211q0 203 -150 203q-75 0 -108.5 -50t-34.5 -165h-119q1 163 69 250t193 87q62 0 119.5 -25t91.5 -67q62 -77 62 -223q0 -125 -37 -200 t-119 -113q90 -38 131 -130t41 -255q0 -389 -280 -389q-144 0 -218.5 86.5t-68.5 253.5z" />
<glyph unicode="4" d="M76 367v129l360 870h125v-883h103v-116h-103v-367h-125v367h-360zM197 483h239v430q0 66 15 252q-20 -86 -78 -233z" />
<glyph unicode="5" d="M98 59l35 125q108 -78 197 -78q86 0 139 83t53 217q0 146 -57 226.5t-160 80.5q-81 0 -184 -56l84 709h407v-119h-295l-49 -418q58 7 74 7q139 0 224 -118t85 -312q0 -193 -87.5 -308.5t-233.5 -115.5q-126 0 -232 77z" />
<glyph unicode="6" d="M94 377q0 229 111 493l205 496h131l-267 -639q71 47 136 47q117 0 182 -107.5t65 -299.5q0 -189 -69.5 -287t-204.5 -98q-137 0 -213 103.5t-76 291.5zM217 381q0 -138 44 -213.5t126 -75.5q75 0 111.5 71.5t36.5 221.5q0 138 -41 209.5t-119 71.5q-75 0 -116.5 -74.5 t-41.5 -210.5z" />
<glyph unicode="7" d="M113 1247v119h561l-420 -1366h-133l385 1247h-393z" />
<glyph unicode="8" d="M88 379q0 309 172 377q-74 47 -107.5 116.5t-33.5 176.5q0 157 73 246t201 89q120 0 189 -88t69 -243q0 -113 -34 -183.5t-109 -113.5q83 -46 119.5 -132t36.5 -235q0 -198 -76 -302.5t-219 -104.5q-134 0 -207.5 104t-73.5 293zM211 391q0 -141 42.5 -217t121.5 -76 q166 0 166 308q0 139 -43 215.5t-121 76.5t-122 -80.5t-44 -226.5zM242 1057q0 -244 145 -244q67 0 104 59t37 166q0 109 -38 169.5t-107 60.5t-105 -54t-36 -157z" />
<glyph unicode="9" d="M94 999q0 189 70 287t205 98q137 0 212.5 -103t75.5 -292q0 -228 -110 -493l-205 -496h-133l268 639q-71 -47 -135 -47q-117 0 -182.5 107.5t-65.5 299.5zM217 983q0 -139 41 -211t119 -72q75 0 116.5 74.5t41.5 212.5q0 137 -44.5 213t-125.5 76q-75 0 -111.5 -71.5 t-36.5 -221.5z" />
<glyph unicode=":" horiz-adv-x="362" d="M88 80q0 37 27.5 63.5t64.5 26.5q38 0 65 -27t27 -65t-27 -65t-65 -27t-65 27t-27 67zM88 852q0 37 27.5 63.5t64.5 26.5q38 0 65 -27t27 -65t-27 -65t-65 -27t-65 27t-27 67z" />
<glyph unicode=";" horiz-adv-x="362" d="M12 -250l142 420l127 -57l-181 -404zM96 852q0 37 27.5 63.5t64.5 26.5q38 0 65.5 -27t27.5 -65t-27.5 -65t-65.5 -27t-65 27t-27 67z" />
<glyph unicode="&#x3c;" horiz-adv-x="1024" d="M68 633v108l886 408v-123l-753 -338l753 -340v-121z" />
<glyph unicode="=" d="M68 532v113h614v-113h-614zM68 750v112h614v-112h-614z" />
<glyph unicode="&#x3e;" horiz-adv-x="1024" d="M70 225v125l753 338l-753 338v123l886 -408v-108z" />
<glyph unicode="?" horiz-adv-x="679" d="M109 1020v96q0 132 59.5 200t175.5 68q57 0 105 -21t73 -58q26 -38 36.5 -89.5t10.5 -144.5q0 -140 -15.5 -214.5t-53.5 -117.5q-29 -35 -67 -50.5t-99 -18.5v-328h-121v438h86q46 0 73 11t44 43.5t22.5 84t5.5 140.5q0 120 -23 167.5t-83 47.5q-109 0 -109 -168v-86 h-120zM186 78q0 37 27.5 64.5t65.5 27.5t65 -27t27 -65t-27.5 -65t-67.5 -27q-37 0 -63.5 27.5t-26.5 64.5z" />
<glyph unicode="@" horiz-adv-x="1353" d="M63 684q0 195 82.5 355.5t226 252.5t316.5 92q160 0 291.5 -79t207 -216.5t75.5 -304.5q0 -130 -43.5 -242.5t-116.5 -178.5t-158 -66q-46 0 -85 32.5t-48 78.5l-6 28q-54 -87 -90 -115t-94 -28q-101 0 -167.5 102.5t-66.5 257.5q0 169 81.5 282.5t201.5 113.5 q89 0 137 -82q11 -19 29 -58l14 121h106l-53 -455q-8 -74 -8 -94q0 -82 70 -82q75 0 134.5 113.5t59.5 257.5q0 220 -133.5 362t-339.5 142q-139 0 -255 -78t-182.5 -214t-66.5 -300q0 -163 67.5 -300.5t186.5 -215.5q122 -78 285 -78q100 0 181.5 24.5t176.5 84.5l49 -105 q-193 -110 -405 -110q-200 0 -352 96q-143 91 -225.5 253.5t-82.5 352.5zM508 649q0 -109 34 -179.5t87 -70.5q72 0 127 95t55 219q0 100 -37 164.5t-94 64.5q-73 0 -122.5 -84t-49.5 -209z" />
<glyph unicode="A" horiz-adv-x="665" d="M2 0l268 1366h119l275 -1366h-136l-53 281h-289l-49 -281h-135zM207 389h250l-90 483q-32 166 -39 322q-15 -212 -35 -322z" />
<glyph unicode="B" horiz-adv-x="718" d="M113 0v1366h200q140 0 199 -45q50 -38 78 -118t28 -183q0 -129 -39 -203t-130 -117q112 -31 156 -104t44 -227q0 -229 -110 -312q-44 -33 -93.5 -45t-144.5 -12h-188zM240 109h67q114 0 163.5 60t49.5 198q0 282 -207 282h-73v-540zM240 762h67q101 0 141.5 55.5 t40.5 194.5q0 140 -36 192.5t-131 52.5h-82v-495z" />
<glyph unicode="C" horiz-adv-x="655" d="M78 639q0 422 121 610q43 64 111 100.5t145 36.5q98 0 163 -45v-139q-53 36 -86 49t-71 13q-59 0 -107.5 -33.5t-74.5 -91.5q-70 -149 -70 -449q0 -352 88 -500q23 -38 65.5 -61t88.5 -23q72 0 167 62v-129q-86 -57 -178 -57q-69 0 -135.5 36.5t-109.5 98.5 q-117 168 -117 522z" />
<glyph unicode="D" horiz-adv-x="759" d="M113 0v1366h159q98 0 165 -20.5t116 -66.5t76.5 -127t40 -194t12.5 -276q0 -239 -25 -366.5t-88 -206.5q-87 -109 -288 -109h-168zM240 117h59q107 0 158 57q56 60 76 157t20 302q0 140 -12 275.5t-29 187.5q-26 82 -77 117.5t-140 35.5h-55v-1132z" />
<glyph unicode="E" horiz-adv-x="616" d="M113 0v1366h428v-117h-301v-481h292v-117h-292v-534h301v-117h-428z" />
<glyph unicode="F" horiz-adv-x="604" d="M113 0v1366h436v-117h-309v-481h292v-117h-292v-651h-127z" />
<glyph unicode="G" horiz-adv-x="765" d="M78 711q0 365 84 526q37 69 102.5 108t145.5 39q63 0 117.5 -25.5t88.5 -70.5q45 -60 70 -162l-125 -49q-20 100 -55 142.5t-98 42.5q-106 0 -153.5 -127t-47.5 -408q0 -344 43 -489q19 -63 58.5 -97.5t94.5 -34.5q90 0 129 80q29 65 29 291v127h-186v117h313v-275 q0 -201 -33 -286q-72 -178 -258 -178q-141 0 -217 102q-102 135 -102 627z" />
<glyph unicode="H" horiz-adv-x="788" d="M113 0v1366h127v-545h311v545h127v-1366h-127v705h-311v-705h-127z" />
<glyph unicode="I" horiz-adv-x="350" d="M113 0v1366h127v-1366h-127z" />
<glyph unicode="J" horiz-adv-x="458" d="M2 16v131q64 -59 125 -59q69 0 84 55q8 20 8 117v1106h127v-1133q0 -89 -5.5 -123t-25.5 -61q-22 -32 -66.5 -50.5t-101.5 -18.5q-72 0 -145 36z" />
<glyph unicode="K" horiz-adv-x="673" d="M113 0v1366h127v-621l274 621h141l-295 -649l297 -717h-143l-274 688v-688h-127z" />
<glyph unicode="L" horiz-adv-x="538" d="M113 0v1366h127v-1249h297v-117h-424z" />
<glyph unicode="M" horiz-adv-x="1021" d="M43 0l193 1366h108l148 -936q19 -117 24 -217q8 96 27 213l159 940h109l166 -1366h-123l-96 887q-11 117 -13 248l-2 -14l-1.5 -10.5t-0.5 -4.5l-4 -55q-4 -61 -20 -164l-154 -887h-102l-146 889q-15 97 -20 201q-1 3 -1.5 9.5t-1 17t-1.5 18.5q-4 -181 -12 -246 l-111 -889h-125z" />
<glyph unicode="N" horiz-adv-x="792" d="M113 0v1366h110l309 -928l50 -162q-13 120 -13 199v891h111v-1366h-111l-301 901q-11 31 -57 193q12 -150 12 -242v-852h-110z" />
<glyph unicode="O" horiz-adv-x="827" d="M78 684q0 426 127 596q78 104 209 104q172 0 254 -173t82 -535q0 -352 -83 -523t-253 -171q-336 0 -336 702zM207 684q0 -294 51.5 -436t157.5 -142q107 0 156 136t49 438q0 308 -48 445t-157 137q-106 0 -157.5 -142t-51.5 -436z" />
<glyph unicode="P" horiz-adv-x="673" d="M113 0v1366h163q188 0 267.5 -83t79.5 -279q0 -194 -73.5 -272.5t-256.5 -78.5h-53v-653h-127zM240 770h84q95 0 132.5 51.5t37.5 182.5q0 136 -42.5 190.5t-148.5 54.5h-63v-479z" />
<glyph unicode="Q" horiz-adv-x="827" d="M78 684q0 700 336 700t336 -688q0 -424 -101 -577l101 -156l-101 -63l-82 127q-60 -45 -155 -45q-334 0 -334 702zM207 684q0 -296 52 -437t159 -141q44 0 82 25l-121 188l100 66l94 -147q48 155 48 436q0 313 -48 450.5t-157 137.5q-106 0 -157.5 -142t-51.5 -436z" />
<glyph unicode="R" horiz-adv-x="770" d="M121 0v1366h170q115 0 177 -16t107 -56q99 -86 99 -290q0 -169 -65 -254t-203 -95l315 -655h-146l-317 668v-668h-137zM258 768h86q104 0 147.5 54t43.5 184q0 136 -45.5 189.5t-161.5 53.5h-70v-481z" />
<glyph unicode="S" horiz-adv-x="710" d="M63 1022q0 156 89.5 259t224.5 103q112 0 215 -71v-162q-56 62 -100.5 86.5t-102.5 24.5q-86 0 -141 -63.5t-55 -160.5q0 -83 40.5 -145.5t137.5 -126.5q171 -117 229.5 -198.5t58.5 -202.5q0 -163 -98.5 -274t-243.5 -111q-124 0 -215 71v164q57 -58 109.5 -84.5 t112.5 -26.5q89 0 147.5 69t58.5 175q0 89 -43 148t-172 147q-142 97 -197 179.5t-55 199.5z" />
<glyph unicode="T" horiz-adv-x="542" d="M2 1249v117h537v-117h-205v-1249h-127v1249h-205z" />
<glyph unicode="U" horiz-adv-x="798" d="M113 410v956h127v-946q0 -130 8 -180.5t33 -81.5q46 -52 120 -52q79 0 123 60q22 29 29.5 81t7.5 173v946h127v-956q0 -130 -9.5 -192.5t-35.5 -106.5q-72 -129 -244 -129q-89 0 -154.5 38.5t-97.5 110.5q-20 41 -27 100t-7 179z" />
<glyph unicode="V" horiz-adv-x="667" d="M2 1366h129l172 -905q20 -108 33 -275q14 162 33 271l166 909h129l-277 -1366h-111z" />
<glyph unicode="W" horiz-adv-x="1036" d="M2 1366h129l125 -860q9 -61 20 -221q0 -8 3 -35l8 63l6 43q15 112 24 160l148 850h108l127 -864q9 -60 16.5 -118t12.5 -93l6 -41q4 61 33 258l135 858h129l-241 -1366h-115l-133 889q-19 133 -25 254q-1 -7 -2 -15.5t-1.5 -13t-0.5 -6.5l-4 -43q-10 -109 -23 -182 l-151 -883h-117z" />
<glyph unicode="X" horiz-adv-x="651" d="M2 0l264 694l-264 672h135l123 -338q45 -118 66 -240q10 71 65 232l121 346h137l-260 -672l260 -694h-137l-133 387q-45 126 -53 195q-6 -39 -60 -199l-129 -383h-135z" />
<glyph unicode="Y" horiz-adv-x="647" d="M2 1366h137l129 -399q39 -115 64 -244q16 104 59 250l117 393h137l-250 -768v-598h-127v598z" />
<glyph unicode="Z" horiz-adv-x="571" d="M16 0l379 1249h-342v117h502l-381 -1249h344v-117h-502z" />
<glyph unicode="[" horiz-adv-x="546" d="M150 -354v1847h329v-96h-209v-1655h209v-96h-329z" />
<glyph unicode="\" horiz-adv-x="835" d="M-55 1493h116l801 -1847h-119z" />
<glyph unicode="]" horiz-adv-x="546" d="M68 -258h208v1655h-208v96h329v-1847h-329v96z" />
<glyph unicode="^" horiz-adv-x="1024" d="M61 762l371 606h162l369 -606h-136l-317 510l-313 -510h-136z" />
<glyph unicode="_" horiz-adv-x="1024" d="M0 -143h1024v-115h-1024v115z" />
<glyph unicode="`" horiz-adv-x="1024" d="M297 1251l102 84l185 -241l-74 -56z" />
<glyph unicode="a" horiz-adv-x="677" d="M80 473q0 250 54 359.5t177 109.5q47 0 79.5 -17.5t68.5 -60.5v64h116v-928h-116v74q-37 -47 -74 -67.5t-86 -20.5t-91.5 23.5t-64.5 62.5q-63 108 -63 401zM201 487q0 -229 29.5 -317t105.5 -88q77 0 105 84t28 313q0 205 -29 286t-102 81q-72 0 -104.5 -85t-32.5 -274z " />
<glyph unicode="b" horiz-adv-x="665" d="M102 0v1493h117v-629q34 43 67.5 60.5t80.5 17.5q124 0 177.5 -108t53.5 -357q0 -264 -50.5 -377.5t-168.5 -113.5q-49 0 -86 20.5t-74 67.5v-74h-117zM209 487q0 -234 28 -319.5t105 -85.5t106 87.5t29 317.5q0 189 -32.5 274t-104.5 85t-101.5 -81t-29.5 -278z" />
<glyph unicode="c" horiz-adv-x="507" d="M68 446q0 235 71.5 365.5t200.5 130.5q68 0 127 -35v-137q-61 64 -115 64q-78 0 -121 -99t-43 -278q0 -164 44 -263.5t116 -99.5q32 0 58.5 19t60.5 65v-145q-59 -47 -133 -47q-47 0 -94.5 26t-79.5 70q-92 126 -92 364z" />
<glyph unicode="d" horiz-adv-x="665" d="M68 473q0 250 54 359.5t177 109.5q47 0 79 -17.5t68 -60.5v629h117v-1493h-117v74q-37 -47 -73.5 -67.5t-85.5 -20.5t-91.5 23.5t-64.5 62.5q-63 108 -63 401zM188 487q0 -229 29.5 -317t106.5 -88q52 0 80.5 37t40.5 121t12 239q0 202 -29.5 284.5t-101.5 82.5t-105 -85 t-33 -274z" />
<glyph unicode="e" horiz-adv-x="649" d="M68 461q0 226 69 353.5t191 127.5q120 0 186 -116.5t66 -327.5v-58h-394v-8q0 -160 37 -248q38 -90 107 -90q60 0 89.5 52t35.5 169h116q-6 -161 -66 -245t-167 -84q-132 0 -201 121.5t-69 353.5zM188 539h275q-2 92 -21 178q-12 53 -42 85t-68 32q-63 0 -100.5 -75.5 t-43.5 -219.5z" />
<glyph unicode="f" horiz-adv-x="421" d="M33 819v109h104v344q0 69 10.5 108.5t36.5 71.5q46 55 127 55q55 0 105 -20v-127q-52 39 -84 39q-41 0 -62 -31q-10 -13 -13 -31t-3 -65v-344h162v-109h-162v-819h-117v819h-104z" />
<glyph unicode="g" horiz-adv-x="686" d="M80 483q0 459 233 459q88 0 154 -78v64h117v-983q0 -106 -11.5 -156t-42.5 -86q-66 -72 -188 -72q-117 0 -178.5 66t-61.5 192v35h117q0 -98 29.5 -141t95.5 -43q81 0 107 57q10 21 13 57t3 138v74q-63 -66 -150 -66q-124 0 -180.5 114.5t-56.5 368.5zM201 455 q0 -188 34.5 -273.5t110.5 -85.5q75 0 103 82.5t28 302.5q0 197 -32.5 281t-108.5 84q-29 0 -54.5 -16t-37.5 -42q-43 -85 -43 -333z" />
<glyph unicode="h" horiz-adv-x="684" d="M102 0v1493h117v-639q79 88 180 88q46 0 86 -18.5t62 -49.5q20 -30 27.5 -72t7.5 -118v-684h-117v666q0 67 -3.5 91t-17.5 46q-12 20 -35.5 31.5t-48.5 11.5q-32 0 -62.5 -16.5t-47.5 -43.5q-31 -47 -31 -161v-625h-117z" />
<glyph unicode="i" horiz-adv-x="321" d="M74 1204q0 37 25.5 62.5t62.5 25.5q36 0 62 -26t26 -62q0 -35 -26.5 -61.5t-61.5 -26.5q-36 0 -62 26t-26 62zM102 0v928h117v-928h-117z" />
<glyph unicode="j" horiz-adv-x="329" d="M80 1204q0 37 26 62.5t64 25.5q35 0 60.5 -26.5t25.5 -61.5t-26.5 -61.5t-61.5 -26.5t-61.5 26.5t-26.5 61.5zM109 -354v1282h116v-1282h-116z" />
<glyph unicode="k" horiz-adv-x="643" d="M102 0v1493h117v-942l230 377h133l-267 -416l340 -512h-147l-289 444v-444h-117z" />
<glyph unicode="l" horiz-adv-x="321" d="M102 0v1493h117v-1493h-117z" />
<glyph unicode="m" horiz-adv-x="1052" d="M102 0v928h117v-78q83 92 180 92q116 0 170 -108q45 60 89 84t104 24q49 0 89 -18.5t62 -51.5q21 -32 29 -70.5t8 -111.5v-690h-116v686q0 83 -25.5 121.5t-81.5 38.5q-38 0 -70 -20t-51 -54q-22 -45 -22 -180v-592h-117v684q0 88 -22.5 125t-75.5 37q-34 0 -66 -17 t-49 -43q-21 -32 -28 -74t-7 -137v-575h-117z" />
<glyph unicode="n" horiz-adv-x="684" d="M102 0v928h117v-74q79 88 180 88q94 0 138.5 -62.5t44.5 -195.5v-684h-117v666q0 67 -3.5 91t-17.5 46q-12 20 -35.5 31.5t-48.5 11.5q-32 0 -62.5 -16.5t-47.5 -43.5q-31 -47 -31 -161v-625h-117z" />
<glyph unicode="o" horiz-adv-x="669" d="M68 465q0 231 69.5 354t200.5 123q133 0 197.5 -120t64.5 -369q0 -467 -260 -467q-133 0 -202.5 122t-69.5 357zM188 455q0 -177 38 -269t110 -92q32 0 60.5 21.5t41.5 56.5q41 96 41 287q0 375 -143 375q-148 0 -148 -379z" />
<glyph unicode="p" horiz-adv-x="665" d="M102 -354v1282h117v-64q36 43 68.5 60.5t79.5 17.5q123 0 177 -109.5t54 -359.5q0 -293 -63 -401q-22 -39 -64.5 -62.5t-91.5 -23.5t-86 20.5t-74 67.5v-428h-117zM209 487q0 -234 28 -319.5t105 -85.5t106 87.5t29 317.5q0 189 -32.5 274t-104.5 85t-101.5 -81 t-29.5 -278z" />
<glyph unicode="q" horiz-adv-x="677" d="M80 473q0 250 54 359.5t177 109.5q47 0 79.5 -17.5t68.5 -60.5v64h116v-1282h-116v428q-37 -47 -74 -67.5t-86 -20.5t-91.5 23.5t-64.5 62.5q-63 108 -63 401zM201 487q0 -229 29.5 -317t105.5 -88q52 0 80.5 37t40.5 121t12 239q0 202 -29.5 284.5t-101.5 82.5 t-104.5 -85t-32.5 -274z" />
<glyph unicode="r" horiz-adv-x="403" d="M102 0v928h117v-123q61 137 158 137v-137q-10 2 -25 2q-41 0 -77 -30.5t-46 -76.5q-10 -42 -10 -137v-563h-117z" />
<glyph unicode="s" horiz-adv-x="514" d="M57 49v137q49 -51 86.5 -71.5t79.5 -20.5q58 0 96.5 41.5t38.5 104.5q0 51 -26 89.5t-109 110.5q-91 79 -128.5 140t-37.5 129q0 101 65 167t165 66q84 0 166 -59v-144q-76 95 -158 95q-50 0 -82.5 -34.5t-32.5 -86.5q0 -50 27.5 -90t103.5 -103q100 -83 134 -138.5 t34 -133.5q0 -112 -72 -187t-178 -75q-88 0 -172 63z" />
<glyph unicode="t" horiz-adv-x="411" d="M39 819v109h98v254h117v-254h156v-109h-156v-819h-117v819h-98z" />
<glyph unicode="u" horiz-adv-x="688" d="M102 225v703h117v-604q0 -127 23 -172q28 -58 102 -58q79 0 107 66q18 37 18 164v604h117v-703q0 -110 -65 -174.5t-177 -64.5t-177 64.5t-65 174.5z" />
<glyph unicode="v" horiz-adv-x="573" d="M14 928h121l123 -555q10 -42 15.5 -70.5t7.5 -42t5.5 -39.5t6.5 -47q8 79 31 195l114 559h121l-205 -928h-127z" />
<glyph unicode="w" horiz-adv-x="911" d="M20 928h119l105 -563q20 -103 26 -195q10 72 27 188l94 570h119l90 -559q1 -5 8 -54q1 -8 3.5 -26.5t7 -52.5t8.5 -66q16 128 30 197l115 561h119l-203 -928h-121l-100 627q-15 108 -18 145l-19 -147l-102 -625h-121z" />
<glyph unicode="x" horiz-adv-x="579" d="M14 0l213 473l-190 455h129l84 -228q32 -83 47 -165q14 72 53 172l86 221h131l-209 -455l209 -473h-131l-104 264q-35 83 -43 137q-15 -75 -41 -139l-103 -262h-131z" />
<glyph unicode="y" horiz-adv-x="600" d="M14 928h121l117 -514q31 -131 41 -234q4 29 47 215l125 533h123l-318 -1264h-125l91 361z" />
<glyph unicode="z" horiz-adv-x="563" d="M10 0l367 819h-318v109h496l-377 -819h316v-109h-484z" />
<glyph unicode="{" horiz-adv-x="563" d="M104 514v121q63 15 90 57.5t27 122.5v402q0 144 60 212t186 68h33v-102h-21q-89 0 -116 -39t-27 -166v-383q0 -100 -26.5 -150.5t-98.5 -87.5q69 -38 97 -91.5t28 -149.5v-371q0 -70 5 -108.5t22 -62.5t43 -31.5t75 -8.5q9 0 19 -2v-100q-157 -1 -218 65t-61 236v377 q0 88 -26 130.5t-91 61.5z" />
<glyph unicode="|" horiz-adv-x="1024" d="M451 -342v1708h122v-1708h-122z" />
<glyph unicode="}" horiz-adv-x="563" d="M63 -256q10 2 21 2h27q66 0 90 44.5t24 160.5v383q0 99 26.5 149.5t98.5 87.5q-69 38 -97 92t-28 150v371q0 134 -26.5 172.5t-118.5 38.5h-17v102h31q131 0 188.5 -70.5t57.5 -230.5v-379q0 -87 27 -130t92 -60v-121q-64 -17 -91.5 -59t-27.5 -123v-400q0 -144 -60 -212 t-186 -68h-31v100z" />
<glyph unicode="~" horiz-adv-x="1366" d="M193 1251q65 126 125.5 177t148.5 51q75 0 233 -74q89 -42 128 -55t75 -13q59 0 102.5 32.5t90.5 111.5l80 -45q-59 -114 -128.5 -168t-158.5 -54q-43 0 -92.5 18t-192.5 83q-86 41 -145 41q-56 0 -100.5 -36t-88.5 -118z" />
<glyph unicode="&#xa1;" horiz-adv-x="485" d="M150 932q0 38 27 65t67 27q37 0 63.5 -27.5t26.5 -64.5t-27.5 -64.5t-64.5 -27.5t-64.5 27.5t-27.5 64.5zM180 -354v1024h123v-1024h-123z" />
<glyph unicode="&#xa2;" d="M170 686q0 247 82 383q44 69 133 102v166h102v-161q44 -9 82 -31v-135q-33 33 -58.5 47t-55.5 14q-77 0 -120.5 -99.5t-43.5 -275.5q0 -164 44 -263t116 -99q32 0 58 18.5t60 65.5v-146q-36 -27 -82 -41v-180h-102v180q-215 82 -215 455z" />
<glyph unicode="&#xa3;" d="M59 61q73 142 179 142q6 0 30 -4q54 80 54 159q0 95 -52 172h-190v86h147q-75 119 -107 208.5t-32 181.5q0 149 87 243t224 94q122 0 201.5 -83t83.5 -216l-119 -22q-1 92 -47 145.5t-123 53.5q-83 0 -130.5 -57.5t-47.5 -157.5q0 -77 40 -181t110 -209h213v-86h-172 q36 -73 36 -145q0 -125 -75 -219q7 -5 22 -15l27 -18q45 -31 65.5 -41t42.5 -10q63 0 72 100l109 -35q-9 -85 -58.5 -135.5t-122.5 -50.5q-40 0 -69.5 13t-124.5 73q-52 35 -80 35q-56 0 -86 -82z" />
<glyph unicode="&#xa4;" horiz-adv-x="1366" d="M123 1212l72 72l192 -190q139 108 297 108q155 0 295 -106l190 188l74 -72l-190 -190q104 -138 104 -293q0 -153 -104 -291l192 -192l-71 -72l-193 193q-141 -109 -295 -109q-151 0 -297 104l-188 -188l-72 72l188 190q-108 131 -108 295q0 150 104 289zM326 729 q0 -148 105 -253t251 -105q149 0 253.5 105t104.5 253t-103.5 254.5t-248.5 106.5q-152 0 -257 -105t-105 -256z" />
<glyph unicode="&#xa5;" d="M33 553v84h278l-45 133h-233v84h205l-179 512h131l129 -399q44 -133 64 -244q11 66 20 103t41 145l117 395h131l-166 -512h193v-84h-221l-43 -133h264v-84h-277v-553h-116v553h-293z" />
<glyph unicode="&#xa6;" horiz-adv-x="1024" d="M451 313h122v-655h-122v655zM451 690v676h122v-676h-122z" />
<glyph unicode="&#xa7;" horiz-adv-x="751" d="M86 580q0 142 54.5 235t152.5 121q-87 57 -127.5 128.5t-40.5 168.5q0 124 71.5 203.5t184.5 79.5q68 0 126.5 -33.5t90.5 -91.5q33 -57 41 -158h-121q-21 174 -139 174q-60 0 -98.5 -51t-38.5 -131q0 -74 37 -125.5t135 -114.5q103 -66 136 -92.5t56 -63.5 q60 -96 60 -262q0 -142 -49 -234t-140 -120q156 -99 156 -285q0 -127 -71.5 -207.5t-184.5 -80.5q-75 0 -135.5 40.5t-91.5 110.5q-26 62 -33 150h119q6 -100 39.5 -146.5t99.5 -46.5q63 0 102 50.5t39 133.5q0 82 -41.5 137t-144.5 109q-74 39 -106.5 63t-57.5 56 q-80 107 -80 283zM203 573q0 -138 44.5 -212t127.5 -74q174 0 174 262q0 309 -174 309q-81 0 -126.5 -75.5t-45.5 -209.5z" />
<glyph unicode="&#xa8;" horiz-adv-x="1024" d="M297 1149q0 35 26.5 61.5t63.5 26.5q35 0 61.5 -26.5t26.5 -61.5q0 -38 -26.5 -64t-63.5 -26q-35 0 -61.5 26.5t-26.5 63.5zM551 1149q0 35 26.5 61.5t63.5 26.5q35 0 61.5 -26.5t26.5 -61.5q0 -38 -26.5 -64t-63.5 -26q-35 0 -61.5 26.5t-26.5 63.5z" />
<glyph unicode="&#xa9;" horiz-adv-x="1548" d="M68 682q0 146 56 277t151 226t227.5 150.5t279.5 55.5q187 0 348 -96t255 -259.5t94 -353.5q0 -191 -94.5 -354t-257 -258t-353.5 -95q-143 0 -274 56t-225.5 151t-150.5 226t-56 274zM147 682q0 -171 84.5 -317t229 -231t313.5 -85t313 85t228 231t84 317 q0 170 -83.5 316.5t-226 232.5t-307.5 86q-175 0 -321 -84.5t-230 -230.5t-84 -320zM520 664q0 440 252 440q62 0 117 -31v-112l-21 12q-53 33 -92 33q-75 0 -111 -78t-36 -240q0 -166 34.5 -246t106.5 -80q26 0 48.5 9t70.5 37v-107q-62 -39 -125 -39q-47 0 -93 23t-75 61 q-76 100 -76 318z" />
<glyph unicode="&#xaa;" horiz-adv-x="491" d="M55 582v67h383v-67h-383zM66 1071q0 162 36 232.5t119 70.5q49 0 88 -39v31h86v-604h-86v37q-42 -45 -96 -45q-78 0 -112.5 74t-34.5 243zM154 1079q0 -141 18 -197.5t64 -56.5t62.5 52.5t16.5 195.5q0 128 -17 179t-60 51q-44 0 -64 -53t-20 -171z" />
<glyph unicode="&#xab;" horiz-adv-x="665" d="M68 485l221 385l80 -43l-195 -342l195 -350l-80 -47zM297 485l221 385l80 -43l-195 -342l195 -350l-80 -47z" />
<glyph unicode="&#xac;" horiz-adv-x="1024" d="M68 432v115h886v-547h-123v432h-763z" />
<glyph unicode="&#xad;" horiz-adv-x="282" d="M0 414v143h283v-143h-283z" />
<glyph unicode="&#xae;" horiz-adv-x="1548" d="M68 682q0 146 56 277t151 226t227.5 150.5t279.5 55.5q187 0 348 -96t255 -259.5t94 -353.5q0 -191 -94.5 -354t-257 -258t-353.5 -95q-143 0 -274 56t-225.5 151t-150.5 226t-56 274zM147 682q0 -171 84.5 -317t229 -231t313.5 -85t313 85t228 231t84 317 q0 170 -83.5 316.5t-226 232.5t-307.5 86q-175 0 -321 -84.5t-230 -230.5t-84 -320zM596 272v820h113q127 0 181 -51t54 -173q0 -192 -149 -213l184 -383h-115l-162 340v-340h-106zM702 745h35q56 0 77.5 27.5t21.5 97.5q0 72 -23 99.5t-84 27.5h-27v-252z" />
<glyph unicode="&#xaf;" horiz-adv-x="1024" d="M299 1085v109h428v-109h-428z" />
<glyph unicode="&#xb0;" horiz-adv-x="751" d="M70 1094q0 126 90 212.5t219 86.5q123 0 212 -88t89 -211t-89.5 -210t-215.5 -87t-215.5 87.5t-89.5 209.5zM174 1094q0 -83 59 -142t142 -59q82 0 140 59t58 142t-58 142.5t-138 59.5q-85 0 -144 -58.5t-59 -143.5z" />
<glyph unicode="&#xb1;" d="M68 190v113h614v-113h-614zM68 641v113h249v247h117v-247h248v-113h-248v-250h-117v250h-249z" />
<glyph unicode="&#xb2;" horiz-adv-x="516" d="M61 545l181 352q63 121 83.5 179t20.5 114q0 51 -22.5 78.5t-63.5 27.5q-92 0 -92 -139q0 -14 2 -24h-90q0 84 12 124q15 57 59 89t107 32q83 0 131.5 -51t48.5 -137q0 -68 -22.5 -134.5t-89.5 -191.5l-127 -235h229v-84h-367z" />
<glyph unicode="&#xb3;" horiz-adv-x="516" d="M72 743v37h90q1 -91 21 -125t71 -34q49 0 71.5 39t22.5 124q0 172 -137 172h-43v78h39q72 0 101.5 33t29.5 111q0 114 -86 114q-46 0 -65 -28.5t-19 -98.5h-86q0 103 43.5 158t126.5 55q85 0 130.5 -50t45.5 -142q0 -72 -19.5 -113.5t-68.5 -73.5q54 -32 76 -82.5 t22 -144.5q0 -235 -182 -235q-91 0 -137.5 52.5t-46.5 153.5z" />
<glyph unicode="&#xb4;" horiz-adv-x="1024" d="M440 1094l185 241l102 -84l-213 -213z" />
<glyph unicode="&#xb5;" horiz-adv-x="688" d="M102 -342v1270h117v-613q0 -126 27 -173.5t98 -47.5q79 0 107 66q18 37 18 164v604h117v-703q0 -107 -65 -173t-169 -66q-43 0 -73.5 10.5t-65.5 36.5l6 -375h-117z" />
<glyph unicode="&#xb6;" horiz-adv-x="751" d="M-6 1022q0 166 74.5 255t212.5 89h430l-27 -119h-84v-1450h-123v1450h-119v-1450h-122v895h-29q-96 0 -154.5 90.5t-58.5 239.5z" />
<glyph unicode="&#xb7;" horiz-adv-x="362" d="M88 487q0 37 27.5 64t64.5 27q38 0 65 -27.5t27 -65.5t-27 -65t-65 -27t-65 27t-27 67z" />
<glyph unicode="&#xb8;" horiz-adv-x="1024" d="M393 -352l148 276l94 -53l-172 -266z" />
<glyph unicode="&#xb9;" horiz-adv-x="518" d="M113 1282l20 84h184v-819h-92v735h-112z" />
<glyph unicode="&#xba;" horiz-adv-x="491" d="M55 582v67h383v-67h-383zM70 1065q0 150 46 229.5t134 79.5q89 0 131.5 -77.5t42.5 -239.5q0 -303 -174 -303q-88 0 -134 79.5t-46 231.5zM158 1057q0 -223 90 -223q41 0 63.5 58.5t22.5 168.5q0 113 -22.5 173t-63.5 60q-90 0 -90 -237z" />
<glyph unicode="&#xbb;" horiz-adv-x="665" d="M68 135l194 350l-194 342l77 43l224 -385l-224 -397zM297 135l195 350l-195 342l78 43l223 -385l-223 -397z" />
<glyph unicode="&#xbc;" horiz-adv-x="1273" d="M115 1282l20 84h184v-819h-92v735h-112zM301 0l592 1366h82l-590 -1366h-84zM821 217v82l228 520h90v-522h63v-80h-63v-217h-92v217h-226zM911 297h136v248q0 43 4 90q-10 -31 -19 -49l-14 -33z" />
<glyph unicode="&#xbd;" horiz-adv-x="1273" d="M115 1282l20 84h184v-819h-92v735h-112zM301 0l592 1366h82l-590 -1366h-84zM817 0l180 352q63 121 84 180t21 113q0 51 -22.5 79t-63.5 28q-92 0 -92 -142q0 -12 2 -22h-90q0 76 12 123q17 57 60.5 88.5t105.5 31.5q82 0 131 -50.5t49 -135.5q0 -68 -23 -134.5 t-90 -191.5l-127 -235h230v-84h-367z" />
<glyph unicode="&#xbe;" horiz-adv-x="1271" d="M72 743v37h90q1 -91 21 -125t71 -34q49 0 71.5 39t22.5 124q0 172 -137 172h-43v78h39q72 0 101.5 33t29.5 111q0 114 -86 114q-46 0 -65 -28.5t-19 -98.5h-86q0 103 43.5 158t126.5 55q85 0 130.5 -50t45.5 -142q0 -72 -19.5 -113.5t-68.5 -73.5q54 -32 76 -82.5 t22 -144.5q0 -235 -182 -235q-91 0 -137.5 52.5t-46.5 153.5zM299 0l592 1366h82l-590 -1366h-84zM819 217v82l228 520h90v-522h61v-80h-61v-217h-93v217h-225zM909 297h135v248q0 31 5 90q-10 -31 -19 -49l-14 -33z" />
<glyph unicode="&#xbf;" horiz-adv-x="677" d="M109 -61q0 140 15.5 214t53.5 117q30 36 68.5 52.5t97.5 17.5v330h121v-441h-86q-63 0 -93 -22.5t-42.5 -79.5t-12.5 -174q0 -120 23.5 -167.5t83.5 -47.5q57 0 84 41t27 127v84h120v-96q0 -131 -60 -199t-175 -68q-57 0 -105 21.5t-73 58.5q-26 38 -36.5 89t-10.5 143z M307 932q0 38 27 65t67 27q37 0 64 -27.5t27 -64.5t-27.5 -64.5t-65.5 -27.5q-37 0 -64.5 27t-27.5 65z" />
<glyph unicode="&#xc0;" horiz-adv-x="665" d="M2 0l268 1366h119l275 -1366h-136l-53 281h-289l-49 -281h-135zM98 1673l103 86l184 -243l-74 -56zM207 389h250l-90 483q-32 166 -39 322q-15 -212 -35 -322z" />
<glyph unicode="&#xc1;" horiz-adv-x="665" d="M2 0l268 1366h119l275 -1366h-136l-53 281h-289l-49 -281h-135zM207 389h250l-90 483q-32 166 -39 322q-15 -212 -35 -322zM279 1516l184 243l102 -86l-213 -213z" />
<glyph unicode="&#xc2;" horiz-adv-x="665" d="M2 0l268 1366h119l275 -1366h-136l-53 281h-289l-49 -281h-135zM102 1540l228 219l235 -219l-84 -80l-151 144l-152 -144zM207 389h250l-90 483q-32 166 -39 322q-15 -212 -35 -322z" />
<glyph unicode="&#xc3;" horiz-adv-x="665" d="M2 0l268 1366h119l275 -1366h-136l-53 281h-289l-49 -281h-135zM111 1501q21 156 139 156q33 0 98 -29q63 -31 84 -31q35 0 35 52h115q-6 -76 -42.5 -116t-99.5 -40q-46 0 -137 43q-32 16 -43 16q-15 0 -25 -12t-10 -29v-10h-114zM207 389h250l-90 483q-32 166 -39 322 q-15 -212 -35 -322z" />
<glyph unicode="&#xc4;" horiz-adv-x="665" d="M2 0l268 1366h119l275 -1366h-136l-53 281h-289l-49 -281h-135zM119 1571q0 35 26.5 61.5t63.5 26.5q35 0 61.5 -26.5t26.5 -61.5q0 -38 -26.5 -64t-63.5 -26q-35 0 -61.5 26.5t-26.5 63.5zM207 389h250l-90 483q-32 166 -39 322q-15 -212 -35 -322zM381 1571 q0 35 26.5 61.5t63.5 26.5q35 0 61.5 -26.5t26.5 -61.5q0 -38 -26.5 -64t-63.5 -26q-35 0 -61.5 26.5t-26.5 63.5z" />
<glyph unicode="&#xc5;" horiz-adv-x="665" d="M2 0l268 1366h119l275 -1366h-136l-53 281h-289l-49 -281h-135zM182 1612q0 65 46 110t112 45q65 0 110.5 -45.5t45.5 -109.5q0 -66 -46 -112t-112 -46q-63 0 -109.5 47t-46.5 111zM207 389h250l-90 483q-32 166 -39 322q-15 -212 -35 -322zM264 1612q0 -31 22.5 -53.5 t51.5 -22.5q32 0 54 22t22 54q0 31 -21.5 52.5t-52.5 21.5q-32 0 -54 -21.5t-22 -52.5z" />
<glyph unicode="&#xc6;" horiz-adv-x="946" d="M2 0l268 1366h455l20 -117h-292l88 -481h276l21 -117h-277l96 -534h287l19 -117h-422l-45 281h-312l-47 -281h-135zM207 389h270l-96 578q-19 113 -33 252q-18 -138 -39 -250z" />
<glyph unicode="&#xc7;" horiz-adv-x="655" d="M78 641q0 423 121 608q43 64 111 100.5t145 36.5q98 0 163 -45v-139q-53 36 -86 49t-71 13q-60 0 -109.5 -33.5t-75.5 -91.5q-69 -147 -69 -449q0 -357 88 -500q23 -38 66 -61t90 -23q76 0 167 62v-129q-86 -57 -178 -57q-69 0 -135.5 36.5t-109.5 98.5q-61 88 -89 213 t-28 311zM233 -381l158 299l101 -55l-183 -287z" />
<glyph unicode="&#xc8;" horiz-adv-x="616" d="M113 0v1366h428v-117h-301v-481h292v-117h-292v-534h301v-117h-428zM135 1673l103 86l184 -243l-74 -56z" />
<glyph unicode="&#xc9;" horiz-adv-x="616" d="M113 0v1366h428v-117h-301v-481h292v-117h-292v-534h301v-117h-428zM258 1516l184 243l103 -86l-213 -213z" />
<glyph unicode="&#xca;" horiz-adv-x="616" d="M109 1540l227 219l235 -219l-84 -80l-151 144l-152 -144zM113 0v1366h426v-117h-299v-481h290v-117h-290v-534h299v-117h-426z" />
<glyph unicode="&#xcb;" horiz-adv-x="616" d="M113 0v1366h428v-117h-301v-481h292v-117h-292v-534h301v-117h-428zM113 1571q0 35 26.5 61.5t63.5 26.5q35 0 61.5 -26.5t26.5 -61.5q0 -38 -26.5 -64t-63.5 -26q-35 0 -61.5 26.5t-26.5 63.5zM375 1571q0 35 26.5 61.5t63.5 26.5q35 0 61.5 -26.5t26.5 -61.5 q0 -38 -26.5 -64t-63.5 -26q-35 0 -61.5 26.5t-26.5 63.5z" />
<glyph unicode="&#xcc;" horiz-adv-x="350" d="M-43 1675l102 84l170 -243l-71 -56zM113 0v1366h127v-1366h-127z" />
<glyph unicode="&#xcd;" horiz-adv-x="350" d="M113 0v1366h127v-1366h-127zM121 1516l170 243l104 -84l-200 -215z" />
<glyph unicode="&#xce;" horiz-adv-x="350" d="M-35 1540l215 219l219 -219l-82 -80l-137 144l-139 -144zM111 0v1366h127v-1366h-127z" />
<glyph unicode="&#xcf;" horiz-adv-x="350" d="M-29 1571q0 35 26.5 61.5t63.5 26.5q35 0 62 -26.5t27 -61.5q0 -38 -27 -64t-64 -26q-35 0 -61.5 26.5t-26.5 63.5zM113 0v1366h127v-1366h-127zM217 1571q0 35 26.5 61.5t63.5 26.5q35 0 61.5 -26.5t26.5 -61.5q0 -38 -26.5 -64t-63.5 -26q-35 0 -61.5 26.5t-26.5 63.5z " />
<glyph unicode="&#xd0;" horiz-adv-x="759" d="M16 657v103h97v606h159q81 0 140.5 -13.5t106.5 -46t77 -82.5t50 -128t28 -177t8 -235q0 -241 -25 -368t-88 -207q-87 -109 -288 -109h-168v657h-97zM240 117h59q107 0 158 57q56 60 76 157t20 302q0 141 -12 276t-29 187q-26 82 -77 117.5t-140 35.5h-55v-489h184v-103 h-184v-540z" />
<glyph unicode="&#xd1;" horiz-adv-x="792" d="M113 0v1366h110l309 -928l50 -162q-13 120 -13 199v891h111v-1366h-111l-301 901q-11 31 -57 193q12 -150 12 -242v-852h-110zM186 1501q21 156 140 156q33 0 98 -29q63 -31 84 -31q35 0 35 52h114q-6 -76 -42 -116t-99 -40q-46 0 -137 43q-32 16 -43 16q-15 0 -25 -12 t-10 -29v-10h-115z" />
<glyph unicode="&#xd2;" horiz-adv-x="827" d="M78 684q0 426 127 596q78 104 209 104q172 0 254 -173t82 -535q0 -352 -83 -523t-253 -171q-336 0 -336 702zM203 1673l102 86l184 -243l-73 -56zM207 684q0 -294 51.5 -436t157.5 -142q107 0 156 136t49 438q0 308 -48 445t-157 137q-106 0 -157.5 -142t-51.5 -436z" />
<glyph unicode="&#xd3;" horiz-adv-x="827" d="M78 684q0 426 127 596q78 104 209 104q172 0 254 -173t82 -535q0 -352 -83 -523t-253 -171q-336 0 -336 702zM207 684q0 -294 51.5 -436t157.5 -142q107 0 156 136t49 438q0 308 -48 445t-157 137q-106 0 -157.5 -142t-51.5 -436zM352 1516l185 243l102 -86l-213 -213z " />
<glyph unicode="&#xd4;" horiz-adv-x="827" d="M78 684q0 426 127 596q78 104 209 104q172 0 254 -173t82 -535q0 -352 -83 -523t-253 -171q-336 0 -336 702zM184 1540l228 219l235 -219l-84 -80l-151 144l-152 -144zM207 684q0 -294 51.5 -436t157.5 -142q107 0 156 136t49 438q0 308 -48 445t-157 137 q-106 0 -157.5 -142t-51.5 -436z" />
<glyph unicode="&#xd5;" horiz-adv-x="827" d="M78 684q0 426 127 596q78 104 209 104q172 0 254 -173t82 -535q0 -352 -83 -523t-253 -171q-336 0 -336 702zM201 1501q21 156 139 156q33 0 98 -29q63 -31 84 -31q35 0 35 52h115q-6 -76 -42.5 -116t-99.5 -40q-46 0 -137 43q-32 16 -43 16q-15 0 -25 -12t-10 -29v-10 h-114zM207 684q0 -294 51.5 -436t157.5 -142q107 0 156 136t49 438q0 308 -48 445t-157 137q-106 0 -157.5 -142t-51.5 -436z" />
<glyph unicode="&#xd6;" horiz-adv-x="827" d="M78 684q0 426 127 596q78 104 209 104q172 0 254 -173t82 -535q0 -352 -83 -523t-253 -171q-336 0 -336 702zM201 1571q0 35 26.5 61.5t63.5 26.5q35 0 61.5 -26.5t26.5 -61.5q0 -38 -26.5 -64t-63.5 -26q-35 0 -61.5 26.5t-26.5 63.5zM207 684q0 -294 51.5 -436 t157.5 -142q107 0 156 136t49 438q0 308 -48 445t-157 137q-106 0 -157.5 -142t-51.5 -436zM463 1571q0 35 26.5 61.5t63.5 26.5q35 0 61.5 -26.5t26.5 -61.5q0 -38 -26.5 -64t-63.5 -26q-35 0 -61.5 26.5t-26.5 63.5z" />
<glyph unicode="&#xd7;" d="M109 508l186 188l-186 187l79 80l189 -187l186 187l78 -80l-186 -187l188 -186l-80 -80l-188 186l-187 -186z" />
<glyph unicode="&#xd8;" horiz-adv-x="854" d="M68 23l88 182q-64 173 -64 483q0 344 85 520t249 176q148 0 225 -120l58 118l79 -39l-86 -182q62 -162 62 -481q0 -354 -82.5 -526t-251.5 -172q-143 0 -223 122l-60 -120zM221 688q0 -146 21 -319l342 764q-48 129 -154 129t-157.5 -141.5t-51.5 -432.5zM276 233 q52 -127 152 -127q110 0 158.5 136.5t48.5 451.5q0 140 -19 301z" />
<glyph unicode="&#xd9;" horiz-adv-x="798" d="M113 410v956h127v-946q0 -130 8 -180.5t33 -81.5q46 -52 120 -52q79 0 123 60q22 29 29.5 81t7.5 173v946h127v-956q0 -130 -9.5 -192.5t-35.5 -106.5q-72 -129 -244 -129q-89 0 -154.5 38.5t-97.5 110.5q-20 41 -27 100t-7 179zM188 1673l103 86l184 -243l-74 -56z" />
<glyph unicode="&#xda;" horiz-adv-x="798" d="M113 410v956h127v-946q0 -130 8 -180.5t33 -81.5q46 -52 120 -52q79 0 123 60q22 29 29.5 81t7.5 173v946h127v-956q0 -130 -9.5 -192.5t-35.5 -106.5q-72 -129 -244 -129q-89 0 -154.5 38.5t-97.5 110.5q-20 41 -27 100t-7 179zM346 1516l184 243l103 -86l-213 -213z " />
<glyph unicode="&#xdb;" horiz-adv-x="798" d="M113 410v956h127v-946q0 -130 8 -180.5t33 -81.5q46 -52 120 -52q79 0 123 60q22 29 29.5 81t7.5 173v946h127v-956q0 -130 -9.5 -192.5t-35.5 -106.5q-72 -129 -244 -129q-89 0 -154.5 38.5t-97.5 110.5q-20 41 -27 100t-7 179zM184 1540l228 219l235 -219l-84 -80 l-151 144l-152 -144z" />
<glyph unicode="&#xdc;" horiz-adv-x="798" d="M113 410v956h127v-946q0 -130 8 -180.5t33 -81.5q46 -52 120 -52q79 0 123 60q22 29 29.5 81t7.5 173v946h127v-956q0 -130 -9.5 -192.5t-35.5 -106.5q-72 -129 -244 -129q-89 0 -154.5 38.5t-97.5 110.5q-20 41 -27 100t-7 179zM186 1571q0 35 26.5 61.5t63.5 26.5 q35 0 62 -26.5t27 -61.5q0 -38 -27 -64t-64 -26q-35 0 -61.5 26.5t-26.5 63.5zM449 1571q0 35 26.5 61.5t63.5 26.5q35 0 61.5 -26.5t26.5 -61.5q0 -38 -26.5 -64t-63.5 -26q-35 0 -61.5 26.5t-26.5 63.5z" />
<glyph unicode="&#xdd;" horiz-adv-x="647" d="M2 1366h137l129 -399q39 -115 64 -244q16 104 59 250l117 393h137l-250 -768v-598h-127v598zM268 1516l185 243l102 -86l-213 -213z" />
<glyph unicode="&#xde;" horiz-adv-x="673" d="M113 0v1366h127v-240h36q188 0 267.5 -82.5t79.5 -277.5q0 -194 -73.5 -272t-256.5 -78h-53v-416h-127zM240 532h84q95 0 132.5 51.5t37.5 180.5q0 136 -42.5 191t-148.5 55h-63v-478z" />
<glyph unicode="&#xdf;" horiz-adv-x="696" d="M8 838v120h107v183q0 114 12.5 175t44.5 107q26 38 77 61t109 23q123 0 187.5 -83t64.5 -240q0 -117 -32 -185.5t-101 -99.5q84 -37 117 -135t33 -311q0 -133 -16.5 -214.5t-55.5 -140.5q-64 -98 -190 -98h-43v117h34q85 0 117.5 79t32.5 285q0 198 -33 277.5t-115 79.5 h-36v120h34q69 0 101 47.5t32 151.5q0 242 -133 242q-69 0 -97 -55t-28 -189v-1155h-116v838h-107z" />
<glyph unicode="&#xe0;" horiz-adv-x="677" d="M80 473q0 250 54 359.5t177 109.5q47 0 79.5 -17.5t68.5 -60.5v64h116v-928h-116v74q-37 -47 -74 -67.5t-86 -20.5t-91.5 23.5t-64.5 62.5q-63 108 -63 401zM150 1251l102 84l184 -241l-74 -56zM201 487q0 -229 29.5 -317t105.5 -88q77 0 105 84t28 313q0 205 -29 286 t-102 81q-72 0 -104.5 -85t-32.5 -274z" />
<glyph unicode="&#xe1;" horiz-adv-x="677" d="M80 473q0 250 54 359.5t177 109.5q47 0 79.5 -17.5t68.5 -60.5v64h116v-928h-116v74q-37 -47 -74 -67.5t-86 -20.5t-91.5 23.5t-64.5 62.5q-63 108 -63 401zM201 487q0 -229 29.5 -317t105.5 -88q77 0 105 84t28 313q0 205 -29 286t-102 81q-72 0 -104.5 -85t-32.5 -274z M287 1094l184 241l102 -84l-213 -213z" />
<glyph unicode="&#xe2;" horiz-adv-x="677" d="M80 473q0 250 54 359.5t177 109.5q47 0 79.5 -17.5t68.5 -60.5v64h116v-928h-116v74q-37 -47 -74 -67.5t-86 -20.5t-91.5 23.5t-64.5 62.5q-63 108 -63 401zM117 1116l223 221l225 -221l-78 -78l-147 144l-145 -144zM201 487q0 -229 29.5 -317t105.5 -88q77 0 105 84 t28 313q0 205 -29 286t-102 81q-72 0 -104.5 -85t-32.5 -274z" />
<glyph unicode="&#xe3;" horiz-adv-x="677" d="M80 473q0 250 54 359.5t177 109.5q47 0 79.5 -17.5t68.5 -60.5v64h116v-928h-116v74q-37 -47 -74 -67.5t-86 -20.5t-91.5 23.5t-64.5 62.5q-63 108 -63 401zM135 1077q21 158 139 158q34 0 99 -29q64 -30 84 -30q19 0 27 11.5t8 39.5h114q-12 -158 -141 -158 q-27 0 -54 8.5t-83 34.5q-32 16 -43 16q-15 0 -25 -12t-10 -29v-10h-115zM201 487q0 -229 29.5 -317t105.5 -88q77 0 105 84t28 313q0 205 -29 286t-102 81q-72 0 -104.5 -85t-32.5 -274z" />
<glyph unicode="&#xe4;" horiz-adv-x="677" d="M80 473q0 250 54 359.5t177 109.5q47 0 79.5 -17.5t68.5 -60.5v64h116v-928h-116v74q-37 -47 -74 -67.5t-86 -20.5t-91.5 23.5t-64.5 62.5q-63 108 -63 401zM133 1149q0 35 26.5 61.5t63.5 26.5q35 0 61.5 -26.5t26.5 -61.5q0 -38 -26.5 -64t-63.5 -26q-35 0 -61.5 26.5 t-26.5 63.5zM201 487q0 -229 29.5 -317t105.5 -88q77 0 105 84t28 313q0 205 -29 286t-102 81q-72 0 -104.5 -85t-32.5 -274zM387 1149q0 35 26.5 61.5t63.5 26.5q35 0 61.5 -26.5t26.5 -61.5q0 -38 -26.5 -64t-63.5 -26q-35 0 -61.5 26.5t-26.5 63.5z" />
<glyph unicode="&#xe5;" horiz-adv-x="677" d="M80 473q0 250 54 359.5t177 109.5q47 0 79.5 -17.5t68.5 -60.5v64h116v-928h-116v74q-37 -47 -74 -67.5t-86 -20.5t-91.5 23.5t-64.5 62.5q-63 108 -63 401zM190 1196q0 65 46 110.5t112 45.5q64 0 110 -46t46 -110q0 -66 -46 -112t-112 -46q-63 0 -109.5 47t-46.5 111z M201 487q0 -229 29.5 -317t105.5 -88q77 0 105 84t28 313q0 205 -29 286t-102 81q-72 0 -104.5 -85t-32.5 -274zM272 1196q0 -31 22.5 -53.5t51.5 -22.5q32 0 54 22t22 54q0 31 -21.5 52.5t-52.5 21.5q-32 0 -54 -21.5t-22 -52.5z" />
<glyph unicode="&#xe6;" horiz-adv-x="1052" d="M68 311q0 144 62 225.5t171 81.5q103 0 166 -75q0 71 -3 102t-15 62q-44 124 -164 124q-38 0 -72.5 -15t-89.5 -56v129q85 53 168 53q167 0 237 -156q28 71 82 113.5t117 42.5q174 0 236 -258q20 -90 20 -240h-410q1 -167 44 -258.5t120 -91.5q117 0 123 228h111 q-4 -151 -71.5 -243.5t-170.5 -92.5q-131 0 -201 155q-29 -72 -88.5 -113.5t-134.5 -41.5q-109 0 -173 87.5t-64 237.5zM180 311q0 -103 36.5 -160t102.5 -57q67 0 108.5 56.5t41.5 148.5q0 104 -39 163.5t-108 59.5t-105.5 -54.5t-36.5 -156.5zM578 543h288 q-2 134 -41.5 212.5t-105.5 78.5q-61 0 -100 -81t-41 -210z" />
<glyph unicode="&#xe7;" horiz-adv-x="507" d="M68 446q0 235 71.5 365.5t200.5 130.5q68 0 127 -35v-137q-61 64 -115 64q-78 0 -121 -99t-43 -278q0 -164 44 -263.5t116 -99.5q32 0 58.5 19t60.5 65v-145q-59 -47 -133 -47q-47 0 -94.5 26t-79.5 70q-92 126 -92 364zM139 -352l148 276l94 -53l-172 -266z" />
<glyph unicode="&#xe8;" horiz-adv-x="649" d="M68 461q0 226 69 353.5t191 127.5q120 0 186 -116.5t66 -327.5v-58h-394q-1 -165 37 -255.5t107 -90.5q60 0 89.5 52t35.5 169h116q-6 -161 -66 -245t-167 -84q-132 0 -201 121.5t-69 353.5zM117 1251l102 84l184 -241l-73 -56zM188 539h275q-2 92 -21 178q-12 53 -42 85 t-68 32q-63 0 -100.5 -75.5t-43.5 -219.5z" />
<glyph unicode="&#xe9;" horiz-adv-x="649" d="M68 461q0 226 69 353.5t191 127.5q120 0 186 -116.5t66 -327.5v-58h-394q-1 -165 37 -255.5t107 -90.5q60 0 89.5 52t35.5 169h116q-6 -161 -66 -245t-167 -84q-132 0 -201 121.5t-69 353.5zM188 539h275q-2 92 -21 178q-12 53 -42 85t-68 32q-63 0 -100.5 -75.5 t-43.5 -219.5zM268 1094l185 241l102 -84l-213 -213z" />
<glyph unicode="&#xea;" horiz-adv-x="649" d="M68 461q0 226 69 353.5t191 127.5q120 0 186 -116.5t66 -327.5v-58h-394q-1 -165 37 -255.5t107 -90.5q60 0 89.5 52t35.5 169h116q-6 -161 -66 -245t-167 -84q-132 0 -201 121.5t-69 353.5zM109 1116l223 221l225 -221l-78 -78l-147 144l-146 -144zM188 539h275 q-2 92 -21 178q-12 53 -42 85t-68 32q-63 0 -100.5 -75.5t-43.5 -219.5z" />
<glyph unicode="&#xeb;" horiz-adv-x="649" d="M68 461q0 226 69 353.5t191 127.5q120 0 186 -116.5t66 -327.5v-58h-394q-1 -165 37 -255.5t107 -90.5q60 0 89.5 52t35.5 169h116q-6 -161 -66 -245t-167 -84q-132 0 -201 121.5t-69 353.5zM121 1149q0 35 26.5 61.5t63.5 26.5q35 0 61.5 -26.5t26.5 -61.5 q0 -38 -26.5 -64t-63.5 -26q-35 0 -61.5 26.5t-26.5 63.5zM188 539h275q-2 92 -21 178q-12 53 -42 85t-68 32q-63 0 -100.5 -75.5t-43.5 -219.5zM375 1149q0 35 26.5 61.5t63.5 26.5q35 0 61.5 -26.5t26.5 -61.5q0 -38 -26.5 -64t-63.5 -26q-35 0 -61.5 26.5t-26.5 63.5z " />
<glyph unicode="&#xec;" horiz-adv-x="321" d="M-51 1253l102 82l170 -241l-71 -56zM102 0v928h117v-928h-117z" />
<glyph unicode="&#xed;" horiz-adv-x="321" d="M102 0v928h117v-928h-117zM106 1094l170 241l103 -82l-199 -215z" />
<glyph unicode="&#xee;" horiz-adv-x="321" d="M-49 1116l211 221l211 -221l-78 -78l-133 144l-133 -144zM102 0v928h117v-928h-117z" />
<glyph unicode="&#xef;" horiz-adv-x="321" d="M-25 1141q0 34 24 58t58 24t58 -24t24 -58t-24 -58t-58 -24t-58 24t-24 58zM102 0v928h117v-928h-117zM199 1141q0 34 24 58t58 24t57.5 -24t23.5 -58t-23.5 -58t-57.5 -24t-58 24t-24 58z" />
<glyph unicode="&#xf0;" horiz-adv-x="669" d="M68 467q0 226 70 350.5t196 124.5q89 0 129 -70q-12 148 -36.5 229.5t-78.5 151.5l-135 -90l-49 78l117 78q-57 50 -177 100l48 74q109 -38 215 -117l137 84l49 -76l-117 -73q79 -100 113 -224q23 -81 37 -252t14 -366q0 -249 -70 -369q-30 -55 -80.5 -84.5t-111.5 -29.5 q-60 0 -114 30.5t-83 81.5q-73 130 -73 369zM188 455q0 -177 38 -269t110 -92q32 0 60.5 21.5t41.5 56.5q41 96 41 287q0 375 -143 375q-148 0 -148 -379z" />
<glyph unicode="&#xf1;" horiz-adv-x="684" d="M102 0v928h117v-74q79 88 180 88q94 0 138.5 -62.5t44.5 -195.5v-684h-117v666q0 67 -3.5 91t-17.5 46q-12 20 -35.5 31.5t-48.5 11.5q-32 0 -62.5 -16.5t-47.5 -43.5q-31 -47 -31 -161v-625h-117zM121 1077q21 158 139 158q33 0 98 -29q64 -30 84 -30q19 0 27 11.5 t8 39.5h115q-12 -158 -141 -158q-44 0 -138 43q-32 16 -43 16q-15 0 -24.5 -12t-9.5 -29v-10h-115z" />
<glyph unicode="&#xf2;" horiz-adv-x="669" d="M68 465q0 231 69.5 354t200.5 123q133 0 197.5 -120t64.5 -369q0 -467 -260 -467q-133 0 -202.5 122t-69.5 357zM123 1251l102 84l185 -241l-74 -56zM188 455q0 -177 38 -269t110 -92q32 0 60.5 21.5t41.5 56.5q41 96 41 287q0 375 -143 375q-148 0 -148 -379z" />
<glyph unicode="&#xf3;" horiz-adv-x="669" d="M68 465q0 231 69.5 354t200.5 123q133 0 197.5 -120t64.5 -369q0 -467 -260 -467q-133 0 -202.5 122t-69.5 357zM188 455q0 -177 38 -269t110 -92q32 0 60.5 21.5t41.5 56.5q41 96 41 287q0 375 -143 375q-148 0 -148 -379zM272 1094l185 241l102 -84l-213 -213z" />
<glyph unicode="&#xf4;" horiz-adv-x="669" d="M68 465q0 231 69.5 354t200.5 123q133 0 197.5 -120t64.5 -369q0 -467 -260 -467q-133 0 -202.5 122t-69.5 357zM117 1116l223 221l225 -221l-78 -78l-147 144l-145 -144zM188 455q0 -177 38 -269t110 -92q32 0 60.5 21.5t41.5 56.5q41 96 41 287q0 375 -143 375 q-148 0 -148 -379z" />
<glyph unicode="&#xf5;" horiz-adv-x="669" d="M68 465q0 231 69.5 354t200.5 123q133 0 197.5 -120t64.5 -369q0 -467 -260 -467q-133 0 -202.5 122t-69.5 357zM119 1077q21 158 139 158q33 0 98 -29q64 -30 84 -30q19 0 27 11.5t8 39.5h115q-12 -158 -141 -158q-44 0 -138 43q-32 16 -43 16q-15 0 -25 -12t-10 -29 v-10h-114zM188 455q0 -177 38 -269t110 -92q32 0 60.5 21.5t41.5 56.5q41 96 41 287q0 375 -143 375q-148 0 -148 -379z" />
<glyph unicode="&#xf6;" horiz-adv-x="669" d="M68 465q0 231 69.5 354t200.5 123q133 0 197.5 -120t64.5 -369q0 -467 -260 -467q-133 0 -202.5 122t-69.5 357zM125 1149q0 35 26.5 61.5t63.5 26.5q35 0 61.5 -26.5t26.5 -61.5q0 -38 -26.5 -64t-63.5 -26q-35 0 -61.5 26.5t-26.5 63.5zM188 455q0 -177 38 -269 t110 -92q32 0 60.5 21.5t41.5 56.5q41 96 41 287q0 375 -143 375q-148 0 -148 -379zM379 1149q0 35 26.5 61.5t63.5 26.5q35 0 61.5 -26.5t26.5 -61.5q0 -38 -26.5 -64t-63.5 -26q-35 0 -61.5 26.5t-26.5 63.5z" />
<glyph unicode="&#xf7;" d="M68 641v113h614v-113h-614zM287 444q0 35 26.5 60.5t61.5 25.5q37 0 62.5 -25.5t25.5 -62.5t-25.5 -62.5t-62.5 -25.5t-62.5 26t-25.5 64zM287 950q0 35 25.5 60.5t62.5 25.5q35 0 60.5 -25.5t25.5 -60.5q0 -37 -25.5 -62.5t-60.5 -25.5q-37 0 -62.5 25.5t-25.5 62.5z " />
<glyph unicode="&#xf8;" horiz-adv-x="696" d="M49 25l78 135q-45 122 -45 303q0 233 69.5 356t200.5 123q105 0 176 -88l54 94l63 -39l-76 -133q45 -112 45 -317q0 -473 -260 -473q-118 0 -186 92l-53 -92zM203 465q0 -84 10 -176l240 461q-31 84 -103 84t-109.5 -94.5t-37.5 -274.5zM242 182q17 -41 45.5 -64.5 t62.5 -23.5q70 0 107 93t37 272q0 64 -15 178z" />
<glyph unicode="&#xf9;" horiz-adv-x="688" d="M102 225v703h117v-604q0 -127 23 -172q28 -58 102 -58q79 0 107 66q18 37 18 164v604h117v-703q0 -110 -65 -174.5t-177 -64.5t-177 64.5t-65 174.5zM127 1251l102 84l185 -241l-74 -56z" />
<glyph unicode="&#xfa;" horiz-adv-x="688" d="M102 225v703h117v-604q0 -127 23 -172q28 -58 102 -58q79 0 107 66q18 37 18 164v604h117v-703q0 -110 -65 -174.5t-177 -64.5t-177 64.5t-65 174.5zM289 1094l184 241l102 -84l-213 -213z" />
<glyph unicode="&#xfb;" horiz-adv-x="688" d="M102 225v703h117v-604q0 -127 23 -172q28 -58 102 -58q79 0 107 66q18 37 18 164v604h117v-703q0 -110 -65 -174.5t-177 -64.5t-177 64.5t-65 174.5zM133 1116l223 221l226 -221l-78 -78l-148 144l-145 -144z" />
<glyph unicode="&#xfc;" horiz-adv-x="688" d="M102 225v703h117v-604q0 -127 23 -172q28 -58 102 -58q79 0 107 66q18 37 18 164v604h117v-703q0 -110 -65 -174.5t-177 -64.5t-177 64.5t-65 174.5zM135 1149q0 35 26.5 61.5t63.5 26.5q35 0 61.5 -26.5t26.5 -61.5q0 -38 -26.5 -64t-63.5 -26q-35 0 -61.5 26.5 t-26.5 63.5zM389 1149q0 35 26.5 61.5t63.5 26.5q35 0 61.5 -26.5t26.5 -61.5q0 -38 -26.5 -64t-63.5 -26q-35 0 -61.5 26.5t-26.5 63.5z" />
<glyph unicode="&#xfd;" horiz-adv-x="600" d="M14 928h121l117 -514q31 -131 41 -234q4 29 47 215l125 533h123l-318 -1264h-125l91 361zM250 1094l184 241l103 -84l-213 -213z" />
<glyph unicode="&#xfe;" horiz-adv-x="665" d="M102 -354v1847h117v-629q36 43 68.5 60.5t79.5 17.5q123 0 177 -109.5t54 -359.5q0 -293 -63 -401q-22 -39 -64.5 -62.5t-91.5 -23.5t-86 20.5t-74 67.5v-428h-117zM209 487q0 -234 28 -319.5t105 -85.5t106 87.5t29 317.5q0 189 -32.5 274t-104.5 85t-101.5 -81 t-29.5 -278z" />
<glyph unicode="&#xff;" horiz-adv-x="600" d="M14 928h121l117 -514q31 -131 41 -234q4 29 47 215l125 533h123l-318 -1264h-125l91 361zM98 1149q0 35 26.5 61.5t63.5 26.5q35 0 61.5 -26.5t26.5 -61.5q0 -38 -26.5 -64t-63.5 -26q-35 0 -61.5 26.5t-26.5 63.5zM352 1149q0 35 26.5 61.5t63.5 26.5q35 0 61.5 -26.5 t26.5 -61.5q0 -38 -26.5 -64t-63.5 -26q-35 0 -61.5 26.5t-26.5 63.5z" />
<glyph unicode="&#x152;" horiz-adv-x="1107" d="M78 694q0 341 81.5 515.5t241.5 174.5q129 0 207 -141v123h422v-117h-301v-481h293v-117h-293v-534h301v-117h-422v143q-38 -86 -89 -124.5t-128 -38.5q-313 0 -313 714zM207 641q0 -265 49 -408q19 -58 60.5 -93.5t91.5 -35.5q101 0 148.5 130t47.5 411q0 376 -65 522 q-20 45 -54 70t-75 25q-85 0 -127 -88q-36 -80 -56 -220.5t-20 -312.5z" />
<glyph unicode="&#x153;" horiz-adv-x="1040" d="M68 471q0 234 75 360q31 50 80.5 80.5t98.5 30.5q71 0 122.5 -51t73.5 -143q20 88 78 141t133 53q77 0 134 -60.5t85 -170.5q25 -94 25 -267h-402q3 -110 16.5 -175.5t41.5 -106.5q44 -68 100 -68q54 0 84.5 52.5t30.5 144.5v28h108v-26q0 -136 -63.5 -221.5 t-163.5 -85.5q-74 0 -129 52t-78 144q-25 -95 -75.5 -145.5t-120.5 -50.5q-120 0 -187 128t-67 357zM180 477q0 -178 39 -280.5t107 -102.5q63 0 101 99t38 264q0 180 -37 278.5t-104 98.5q-66 0 -105 -96.5t-39 -260.5zM575 543h285v16q0 119 -39.5 197t-99.5 78 q-66 0 -104.5 -76.5t-41.5 -214.5z" />
<glyph unicode="&#x178;" horiz-adv-x="647" d="M2 1366h137l129 -399q39 -115 64 -244q16 104 59 250l117 393h137l-250 -768v-598h-127v598zM111 1571q0 35 26.5 61.5t63.5 26.5q35 0 61.5 -26.5t26.5 -61.5q0 -38 -26.5 -64t-63.5 -26q-35 0 -61.5 26.5t-26.5 63.5zM373 1571q0 35 26.5 61.5t63.5 26.5 q35 0 61.5 -26.5t26.5 -61.5q0 -38 -26.5 -64t-63.5 -26q-35 0 -61.5 26.5t-26.5 63.5z" />
<glyph unicode="&#x2c6;" horiz-adv-x="1024" d="M289 1116l223 221l225 -221l-78 -78l-147 144l-145 -144z" />
<glyph unicode="&#x2dc;" horiz-adv-x="1024" d="M276 1077q21 158 140 158q33 0 98 -29q64 -30 84 -30q19 0 27 11.5t8 39.5h115q-6 -78 -42.5 -118t-99.5 -40q-27 0 -54 8.5t-83 34.5q-32 16 -43 16q-15 0 -25 -12t-10 -29v-10h-115z" />
<glyph unicode="&#x2000;" horiz-adv-x="883" />
<glyph unicode="&#x2001;" horiz-adv-x="1767" />
<glyph unicode="&#x2002;" horiz-adv-x="883" />
<glyph unicode="&#x2003;" horiz-adv-x="1767" />
<glyph unicode="&#x2004;" horiz-adv-x="589" />
<glyph unicode="&#x2005;" horiz-adv-x="441" />
<glyph unicode="&#x2006;" horiz-adv-x="294" />
<glyph unicode="&#x2007;" horiz-adv-x="294" />
<glyph unicode="&#x2008;" horiz-adv-x="220" />
<glyph unicode="&#x2009;" horiz-adv-x="353" />
<glyph unicode="&#x200a;" horiz-adv-x="98" />
<glyph unicode="&#x2010;" horiz-adv-x="282" d="M0 414v143h283v-143h-283z" />
<glyph unicode="&#x2011;" horiz-adv-x="282" d="M0 414v143h283v-143h-283z" />
<glyph unicode="&#x2012;" horiz-adv-x="282" d="M0 414v143h283v-143h-283z" />
<glyph unicode="&#x2013;" horiz-adv-x="751" d="M135 414v143h479v-143h-479z" />
<glyph unicode="&#x2014;" horiz-adv-x="847" d="M0 414v143h848v-143h-848z" />
<glyph unicode="&#x2018;" horiz-adv-x="419" d="M82 979l180 405l88 -41l-141 -421z" />
<glyph unicode="&#x2019;" horiz-adv-x="419" d="M82 963l141 421l127 -59l-180 -403z" />
<glyph unicode="&#x201a;" horiz-adv-x="419" d="M68 -250l141 420l127 -57l-180 -404z" />
<glyph unicode="&#x201c;" horiz-adv-x="661" d="M82 979l180 405l88 -41l-141 -421zM324 979l180 405l88 -41l-141 -421z" />
<glyph unicode="&#x201d;" horiz-adv-x="661" d="M82 963l141 421l127 -59l-180 -403zM324 963l141 421l127 -59l-180 -403z" />
<glyph unicode="&#x201e;" horiz-adv-x="661" d="M68 -250l141 420l127 -57l-180 -404zM309 -250l142 420l127 -57l-181 -404z" />
<glyph unicode="&#x2022;" horiz-adv-x="1366" d="M401 692q0 120 83.5 202.5t205.5 82.5q114 0 196.5 -83.5t82.5 -199.5q0 -118 -83 -201t-200 -83t-201 83t-84 199z" />
<glyph unicode="&#x2026;" horiz-adv-x="1003" d="M76 80q0 37 27.5 63.5t64.5 26.5q38 0 65 -27t27 -65t-27 -65t-65 -27t-65 27t-27 67zM410 80q0 37 27.5 63.5t64.5 26.5q38 0 65 -27t27 -65t-27 -65t-65 -27t-65 27t-27 67zM745 80q0 36 28 63t65 27q38 0 65 -27t27 -65t-27 -65t-65 -27t-65.5 27t-27.5 67z" />
<glyph unicode="&#x202f;" horiz-adv-x="353" />
<glyph unicode="&#x2039;" horiz-adv-x="436" d="M68 485l221 385l80 -43l-195 -342l195 -350l-80 -47z" />
<glyph unicode="&#x203a;" horiz-adv-x="436" d="M68 135l194 350l-194 342l77 43l224 -385l-224 -397z" />
<glyph unicode="&#x205f;" horiz-adv-x="441" />
<glyph unicode="&#x20ac;" horiz-adv-x="770" d="M68 563l18 84h76q0 59 2 84h-96l18 84h84q18 250 80 373q46 96 120.5 147t168.5 51q95 0 163 -45l-24 -122q-75 45 -131 45q-163 0 -219 -217q-18 -65 -31 -232h297l-19 -84h-282v-41v-43h264l-16 -84h-244q13 -238 70.5 -347.5t167.5 -109.5q66 0 143 44v-127 q-74 -41 -152 -41q-103 0 -186 68.5t-127 191.5q-40 115 -49 321h-96z" />
<glyph unicode="&#x2122;" horiz-adv-x="931" d="M23 1286v80h315v-80h-115v-698h-86v698h-114zM348 588l109 778h73l91 -575l98 575h74l94 -778h-84l-58 534l-92 -534h-69l-86 524l-66 -524h-84z" />
<glyph unicode="&#xe000;" horiz-adv-x="931" d="M0 0v932h932v-932h-932z" />
</font>
</defs>
</svg>
